# xmcd
#
# Track frame offsets: 
#        150
#        18170
#        38221
#        55298
#        64592
#        76931
#        90320
#        110556
#        131666
#        154508
#        173664
#        194072
#        199754
#        221835
#        230709
#        250534
#
# Disc length: 3676 seconds
#
# Revision: 2
# Processed by: cddbd v1.5.2PL0 Copyright (c) Steve Scherf et al.
# Submitted via: ExactAudioCopy v0.99pb3
#
DISCID=d40e5a10
DTITLE=Didier Lockwood, Marcel Azzola, Martin Taylor et Jean-Philippe 
DTITLE=Viret - Waltz Club
DYEAR=2006
DGENRE=Jazz
TTITLE0=Double Scotch
TTITLE1=N 9 En La Bemol Majeur Op 69 - N 1 Valse De L'adieu
TTITLE2=La Javalseuse
TTITLE3=Valse Nostalgique
TTITLE4=La Traviata
TTITLE5=Indifference 
TTITLE6=La Plus Que Lente
TTITLE7=Bluesette
TTITLE8=La Ballade Irlandaise
TTITLE9=Musette For A Magpie
TTITLE10=La Javanaise
TTITLE11=Balajo
TTITLE12=Padam
TTITLE13=Sa Legitime 
TTITLE14=A Dream Is A Wish Your Heart Makes
TTITLE15=Swing Valse - La Valse A La Quarte
EXTD=YEAR: 2006
EXTT0=
EXTT1=
EXTT2=
EXTT3=
EXTT4=
EXTT5=
EXTT6=
EXTT7=
EXTT8=
EXTT9=
EXTT10=
EXTT11=
EXTT12=
EXTT13=
EXTT14=
EXTT15=
PLAYORDER=
